<?xml version="1.0" encoding="utf-8"?>
<!-- Generator: Adobe Illustrator 23.1.0, SVG Export Plug-In . SVG Version: 6.00 Build 0)  -->
<svg version="1.1" id="Layer_1" xmlns="http://www.w3.org/2000/svg" xmlns:xlink="http://www.w3.org/1999/xlink" x="0px" y="0px"
	 viewBox="0 0 490 70" style="enable-background:new 0 0 490 70;" xml:space="preserve">
<style type="text/css">
	.st0{fill:#46AAFF;}
</style>
<path class="st0" d="M10.2,34.7L10.2,34.7l-0.1,2.4h0.1V34.7z"/>
<path class="st0" d="M8.1,34.7L8.1,34.7L8,37.1h0.1V34.7z"/>
<path class="st0" d="M129.6,33.5v-1.3c0-0.1,0-0.2,0-0.2c0-0.1-0.1-0.2-0.1-0.2c0-0.1-0.1-0.1-0.1-0.2c-0.1-0.1-0.1-0.2-0.2-0.2
	c-0.3-0.3-0.6-0.6-1-0.8c-0.1,0-0.2-0.1-0.2-0.2c-0.1-0.1-0.2-0.1-0.2-0.1c-0.2-0.1-0.3-0.2-0.5-0.2c-0.1-0.1-0.2-0.1-0.2-0.1
	l-0.3-2.1l-0.3,2.1c0,0-0.1,0-0.2,0.1c-0.1,0.1-0.3,0.1-0.5,0.2c-0.1,0-0.2,0.1-0.2,0.1c-0.1,0-0.2,0.1-0.2,0.2
	c-0.3,0.2-0.7,0.5-1,0.8c-0.1,0.1-0.1,0.1-0.2,0.2c0,0.1-0.1,0.1-0.1,0.2c0,0.1-0.1,0.2-0.1,0.2c0,0.1,0,0.2,0,0.2v1.3h-0.9v0.7h1.2
	v3.4h-1.2v1.2c0,0,0.1,0,0.1,0c0.1,0,0.2,0.1,0.2,0.1c0.1,0,0.1,0.1,0.2,0.1c0.2,0.1,0.3,0.3,0.4,0.5c0,0.1,0.1,0.1,0.1,0.2
	c0,0.1,0.1,0.2,0.1,0.3c0,0.1,0,0.1,0.1,0.2c0,0.1,0,0.2,0.1,0.3c0,0.1,0,0.1,0,0.2c0,0,0,0.1,0,0.1c0,0,0,0.1,0,0.1
	c0,0.1,0,0.2,0,0.2h0.1v5.9c0,0-0.1,0-0.1,0.1c-0.1,0-0.1,0.1-0.2,0.1c0,0,0,0,0,0c-0.1,0.1-0.1,0.1-0.1,0.2c0,0-0.1,0.1-0.1,0.1
	c0,0,0,0.1,0,0.2c0,0,0,0.1,0,0.1c0,0.1,0,0.1,0,0.2c0,0,0.3,0.3,0.2,0.7c0,0.1,0,0.2-0.1,0.4c0,0.1-0.1,0.1-0.2,0.2h-0.6
	c-0.1-0.1-0.1-0.2-0.2-0.2c-0.1-0.1-0.1-0.2-0.1-0.4c0-0.4,0.2-0.7,0.2-0.7c0-0.1,0-0.2,0-0.3c0-0.2-0.1-0.4-0.2-0.5
	c-0.2-0.2-0.5-0.4-0.5-0.4s-0.3,0.1-0.5,0.4c-0.1,0.1-0.2,0.3-0.2,0.5c0,0.1,0,0.2,0,0.3c0,0,0.3,0.3,0.2,0.7c0,0.1,0,0.2-0.1,0.4
	c0,0.1-0.1,0.1-0.2,0.2h-0.6c-0.1-0.1-0.1-0.2-0.2-0.2c-0.1-0.1-0.1-0.2-0.1-0.4c0-0.4,0.2-0.7,0.2-0.7c0-0.1,0-0.2,0-0.3
	c0-0.2-0.1-0.4-0.2-0.5c-0.2-0.2-0.5-0.4-0.5-0.4s-0.3,0.1-0.5,0.4c-0.1,0.1-0.2,0.3-0.2,0.5c0,0.1,0,0.2,0,0.3c0,0,0.3,0.3,0.2,0.7
	c0,0.1,0,0.2-0.1,0.4c0,0.1-0.1,0.1-0.2,0.2h-0.6c-0.1-0.1-0.1-0.2-0.1-0.2c-0.1-0.1-0.1-0.2-0.1-0.4c0-0.4,0.2-0.7,0.2-0.7
	c0-0.1,0-0.2,0-0.3c0-0.2-0.1-0.4-0.2-0.5c-0.2-0.2-0.5-0.4-0.5-0.4s-0.1,0-0.2,0.1c-0.1,0.1-0.2,0.1-0.3,0.2
	c-0.1,0.1-0.2,0.3-0.2,0.5c0,0.1,0,0.2,0,0.3c0,0,0.3,0.3,0.2,0.7c0,0.1,0,0.2-0.1,0.4c0,0.1-0.1,0.1-0.2,0.2h-0.6
	c-0.1-0.1-0.1-0.2-0.2-0.2c-0.1-0.1-0.1-0.2-0.1-0.4c0-0.4,0.2-0.7,0.2-0.7c0-0.1,0-0.2,0-0.3c0-0.2-0.1-0.4-0.2-0.5
	c-0.2-0.2-0.5-0.4-0.5-0.4s-0.3,0.1-0.5,0.4c-0.1,0.1-0.2,0.3-0.2,0.5c0,0.1,0,0.2,0,0.3c0,0,0.3,0.3,0.2,0.7c0,0.1,0,0.2-0.1,0.4
	c0,0.1-0.1,0.1-0.2,0.2h-0.6c-0.1-0.1-0.1-0.2-0.2-0.2c-0.1-0.1-0.1-0.2-0.1-0.4c0-0.4,0.2-0.7,0.2-0.7c0-0.1,0-0.2,0-0.3
	c0-0.2-0.1-0.4-0.2-0.5c-0.2-0.2-0.5-0.4-0.5-0.4s-0.3,0.1-0.5,0.4c0,0-0.1,0.1-0.1,0.1c-0.1,0.1-0.1,0.3-0.2,0.4c0,0.1,0,0.2,0,0.3
	c0,0,0,0.1,0.1,0.2c0.1,0.1,0.1,0.3,0.1,0.5c0,0,0,0.1,0,0.1c0,0.1-0.1,0.2-0.1,0.3c0,0-0.1,0.1-0.1,0.1h-0.6
	c-0.1-0.1-0.1-0.1-0.2-0.2c-0.1-0.1-0.1-0.2-0.1-0.4c0-0.4,0.2-0.7,0.2-0.7c0-0.1,0-0.2,0-0.3c0-0.2-0.1-0.4-0.2-0.5
	c-0.2-0.2-0.5-0.4-0.5-0.4s-0.3,0.1-0.5,0.4c-0.1,0.1-0.2,0.3-0.2,0.5c0,0.1,0,0.2,0,0.3c0,0,0.3,0.3,0.2,0.7c0,0.1,0,0.2-0.1,0.4
	c0,0.1-0.1,0.2-0.1,0.2h-0.6c-0.1-0.1-0.1-0.1-0.2-0.2c-0.1-0.1-0.1-0.2-0.1-0.4c0-0.4,0.2-0.7,0.2-0.7c0-0.1,0-0.2,0-0.3
	c0-0.2-0.1-0.4-0.2-0.5c-0.2-0.2-0.5-0.4-0.5-0.4s-0.3,0.1-0.5,0.4c-0.1,0.1-0.2,0.3-0.2,0.5c0,0.1,0,0.2,0,0.3c0,0,0.3,0.3,0.2,0.7
	c0,0.1,0,0.2-0.1,0.4c0,0.1-0.1,0.2-0.2,0.2h-0.6c-0.1-0.1-0.1-0.1-0.2-0.2c-0.1-0.1-0.1-0.2-0.1-0.4c0-0.4,0.2-0.7,0.2-0.7
	c0-0.1,0-0.2,0-0.3c0-0.2-0.1-0.4-0.2-0.5c-0.2-0.2-0.5-0.4-0.5-0.4s-0.3,0.1-0.5,0.4c-0.1,0.1-0.1,0.1-0.2,0.2
	c-0.1,0.1-0.1,0.2-0.1,0.3c0,0.1,0,0.2,0,0.3c0,0,0,0,0.1,0.1c0.1,0.1,0.2,0.3,0.2,0.6c0,0.2-0.1,0.3-0.2,0.5c0,0,0,0-0.1,0.1h-0.6
	c-0.1-0.1-0.1-0.2-0.2-0.2c-0.1-0.1-0.1-0.2-0.1-0.4c0-0.4,0.2-0.7,0.2-0.7c0-0.1,0-0.2,0-0.3c0-0.2-0.1-0.4-0.2-0.5
	c-0.2-0.2-0.5-0.4-0.5-0.4s-0.3,0.1-0.5,0.4c-0.1,0.1-0.2,0.3-0.2,0.5c0,0.1,0,0.2,0,0.3c0,0,0.3,0.3,0.2,0.7c0,0.1,0,0.2-0.1,0.4
	c0,0.1-0.1,0.1-0.1,0.2h-0.6c-0.1-0.1-0.1-0.2-0.1-0.2c-0.1-0.1-0.1-0.2-0.1-0.4c0-0.4,0.2-0.7,0.2-0.7c0-0.1,0-0.2,0-0.3
	c0-0.2-0.1-0.4-0.2-0.5c-0.2-0.2-0.5-0.4-0.5-0.4s-0.3,0.1-0.5,0.4c-0.1,0.1-0.2,0.3-0.2,0.5c0,0.1,0,0.2,0,0.3c0,0,0.3,0.3,0.2,0.7
	c0,0.1,0,0.2-0.1,0.4c0,0.1-0.1,0.1-0.2,0.2h-0.6c-0.1-0.1-0.1-0.2-0.1-0.2c-0.1-0.1-0.1-0.2-0.1-0.4c0-0.4,0.2-0.7,0.2-0.7
	c0-0.1,0-0.2,0-0.3c0-0.2-0.1-0.4-0.2-0.5c-0.2-0.2-0.5-0.4-0.5-0.4s-0.3,0.1-0.5,0.4c-0.1,0.1-0.2,0.3-0.2,0.5c0,0.1,0,0.2,0,0.3
	c0,0,0.3,0.3,0.2,0.7c0,0.1,0,0.2-0.1,0.4c0,0.1-0.1,0.1-0.1,0.2H101c-0.1-0.1-0.1-0.2-0.2-0.2c-0.1-0.1-0.1-0.2-0.1-0.4
	c0-0.4,0.2-0.7,0.2-0.7c0-0.1,0-0.2,0-0.3c0-0.2-0.1-0.4-0.2-0.5c-0.2-0.2-0.5-0.4-0.5-0.4s-0.3,0.1-0.5,0.4
	c-0.1,0.1-0.2,0.3-0.2,0.5c0,0.1,0,0.2,0,0.3c0,0,0.3,0.3,0.2,0.7c0,0.1,0,0.2-0.1,0.4c0,0.1-0.1,0.1-0.1,0.2H99
	c-0.1-0.1-0.1-0.2-0.2-0.2c-0.1-0.1-0.1-0.2-0.1-0.4c0-0.4,0.2-0.7,0.2-0.7c0-0.1,0-0.2,0-0.3c0-0.2-0.1-0.4-0.2-0.5
	c-0.2-0.2-0.5-0.4-0.5-0.4s-0.3,0.1-0.5,0.4c-0.1,0.1-0.2,0.3-0.2,0.5c0,0.1,0,0.2,0,0.3c0,0,0.3,0.3,0.2,0.7c0,0.1,0,0.2-0.1,0.4
	c0,0.1-0.1,0.1-0.2,0.2h-0.6c-0.1-0.1-0.1-0.2-0.2-0.2c-0.1-0.1-0.1-0.2-0.1-0.4c0-0.4,0.2-0.7,0.2-0.7c0-0.1,0-0.2,0-0.3
	c0-0.2-0.1-0.4-0.2-0.5c-0.2-0.2-0.5-0.4-0.5-0.4s-0.3,0.1-0.5,0.4c-0.1,0.1-0.2,0.3-0.2,0.5c0,0.1,0,0.2,0,0.3c0,0,0.3,0.3,0.2,0.7
	c0,0.1,0,0.2-0.1,0.4c0,0.1-0.1,0.1-0.2,0.2h-0.6c-0.1-0.1-0.1-0.2-0.1-0.2c-0.1-0.1-0.1-0.2-0.1-0.4c0-0.4,0.2-0.7,0.2-0.7
	c0-0.1,0-0.2,0-0.3c0-0.2-0.1-0.4-0.2-0.5c-0.2-0.2-0.5-0.4-0.5-0.4s-0.3,0.1-0.5,0.4c-0.1,0.1-0.2,0.3-0.2,0.5c0,0.1,0,0.2,0,0.3
	c0,0,0.3,0.3,0.2,0.7c0,0.1,0,0.2-0.1,0.4c0,0.1-0.1,0.1-0.2,0.2h-0.6c-0.1-0.1-0.1-0.2-0.2-0.2c-0.1-0.1-0.1-0.2-0.1-0.4
	c0-0.4,0.2-0.7,0.2-0.7c0-0.1,0-0.2,0-0.3c0-0.2-0.1-0.4-0.2-0.5c-0.2-0.2-0.5-0.4-0.5-0.4s-0.3,0.1-0.5,0.4
	c-0.1,0.1-0.2,0.3-0.2,0.5c0,0.1,0,0.2,0,0.3c0,0,0.3,0.3,0.2,0.7c0,0.1,0,0.2-0.1,0.4c0,0.1-0.1,0.1-0.1,0.2h-0.6
	c-0.1-0.1-0.1-0.2-0.2-0.2c-0.1-0.1-0.1-0.2-0.1-0.4c0-0.4,0.2-0.7,0.2-0.7c0-0.1,0-0.2,0-0.3c0-0.2-0.1-0.4-0.2-0.5
	c-0.2-0.2-0.5-0.4-0.5-0.4s-0.3,0.1-0.5,0.4c-0.1,0.1-0.2,0.3-0.2,0.5c0,0.1,0,0.2,0,0.3c0,0,0.3,0.3,0.2,0.7c0,0.1,0,0.2-0.1,0.3
	c0,0.1-0.1,0.2-0.2,0.3h-0.1h-0.5c-0.1-0.1-0.1-0.2-0.1-0.2c-0.1-0.1-0.1-0.2-0.1-0.4c0-0.4,0.2-0.7,0.2-0.7c0-0.1,0-0.2,0-0.3
	c0-0.2-0.1-0.4-0.2-0.5c-0.2-0.2-0.5-0.4-0.5-0.4s-0.3,0.1-0.5,0.4c-0.1,0.1-0.2,0.3-0.2,0.5c0,0.1,0,0.2,0,0.3c0,0,0.3,0.3,0.2,0.7
	c0,0.1,0,0.2-0.1,0.4c0,0.1-0.1,0.1-0.2,0.2h-0.6c-0.1-0.1-0.1-0.2-0.2-0.2c-0.1-0.1-0.1-0.2-0.1-0.4c0-0.4,0.2-0.7,0.2-0.7
	c0-0.1,0-0.2,0-0.3c0-0.2-0.1-0.4-0.2-0.5c-0.2-0.2-0.5-0.4-0.5-0.4s-0.3,0.1-0.5,0.4c-0.1,0.1-0.2,0.3-0.2,0.5c0,0.1,0,0.2,0,0.3
	c0,0,0.3,0.3,0.2,0.7c0,0.1,0,0.2-0.1,0.4c0,0.1-0.1,0.1-0.1,0.2h-0.6c-0.1-0.1-0.1-0.2-0.2-0.2c-0.1-0.1-0.1-0.2-0.1-0.4
	c0-0.4,0.2-0.7,0.2-0.7c0-0.1,0-0.2,0-0.3c0-0.2-0.1-0.4-0.2-0.5c-0.2-0.2-0.5-0.4-0.5-0.4s-0.3,0.1-0.5,0.4
	c-0.1,0.1-0.2,0.3-0.2,0.5c0,0.1,0,0.2,0,0.3c0,0,0.3,0.3,0.2,0.7c0,0.1,0,0.2-0.1,0.4c0,0.1-0.1,0.1-0.2,0.2h-0.6
	c-0.1-0.1-0.1-0.2-0.1-0.2c-0.1-0.1-0.1-0.2-0.1-0.4c0-0.4,0.2-0.7,0.2-0.7c0-0.1,0-0.2,0-0.2c0-0.1,0-0.2-0.1-0.3
	c-0.1-0.2-0.3-0.4-0.5-0.5c0,0,0,0-0.1,0c0,0-0.1,0-0.1,0c0,0,0,0-0.1,0v-9.7h0v-2.8h0c0,0,0-1.1,0.5-1.2v-0.6H82v-1.8h0.4v-0.4
	h-0.3v-0.7c0-0.7-1-1.3-1-1.3L81,27l-0.1,1.2c0,0-1,0.6-1,1.3v0.7h-0.2h-0.2v0.4h0.3H80V31v1.4h-0.5v0.6c0.6,0.1,0.5,1.2,0.5,1.2h0
	v0.7c-0.1-0.1-0.2-0.1-0.2-0.1s-0.1,0-0.3,0.1c-0.1,0.1-0.2,0.1-0.2,0.2c0,0,0,0.1-0.1,0.1c-0.1,0.1-0.1,0.2-0.2,0.3
	c0,0,0,0.1,0,0.1c0,0.1,0,0.2,0,0.2c0,0,0.2,0.3,0.2,0.6c0,0,0,0,0,0.1c0,0.2-0.1,0.3-0.2,0.5h-0.4c-0.2-0.2-0.2-0.3-0.2-0.5
	c0,0,0,0,0-0.1c0-0.4,0.2-0.6,0.2-0.6c0-0.1,0-0.2,0-0.2c0-0.1-0.1-0.3-0.2-0.4c0,0,0-0.1-0.1-0.1c-0.1-0.1-0.2-0.1-0.2-0.2
	c-0.2-0.1-0.3-0.1-0.3-0.1s-0.1,0-0.3,0.1c-0.1,0.1-0.2,0.1-0.2,0.2c0,0,0,0.1-0.1,0.1c-0.1,0.1-0.2,0.2-0.2,0.4c0,0.1,0,0.2,0,0.2
	c0,0,0.2,0.3,0.2,0.6c0,0,0,0,0,0.1c0,0.2-0.1,0.3-0.2,0.5h-0.4c-0.2-0.2-0.2-0.3-0.2-0.5c0,0,0,0,0-0.1c0-0.4,0.2-0.6,0.2-0.6
	c0-0.1,0-0.2,0-0.2c0-0.1-0.1-0.3-0.2-0.4c0,0-0.1-0.1-0.1-0.1c-0.1-0.1-0.2-0.1-0.2-0.2c-0.1-0.1-0.3-0.1-0.3-0.1s-0.1,0-0.3,0.1
	c-0.1,0.1-0.2,0.1-0.2,0.2c0,0-0.1,0.1-0.1,0.1c-0.1,0.1-0.1,0.2-0.2,0.4c0,0.1,0,0.2,0,0.2c0,0,0.2,0.3,0.2,0.6c0,0,0,0,0,0.1
	c0,0.2-0.1,0.3-0.2,0.5h-0.4c-0.1-0.2-0.2-0.3-0.2-0.5c0,0,0,0,0-0.1c0-0.4,0.2-0.6,0.2-0.6c0-0.1,0-0.2,0-0.2
	c0-0.1-0.1-0.3-0.2-0.4c0,0,0-0.1-0.1-0.1c-0.1-0.1-0.2-0.1-0.2-0.2c-0.1-0.1-0.3-0.1-0.3-0.1s-0.1,0-0.3,0.1
	c-0.1,0.1-0.2,0.1-0.2,0.2c0,0,0,0.1-0.1,0.1c0,0,0,0.1-0.1,0.1c-0.1,0.1-0.1,0.2-0.1,0.3c0,0.1,0,0.2,0,0.2c0,0,0.2,0.3,0.2,0.6
	c0,0,0,0,0,0.1c0,0.2-0.1,0.3-0.2,0.5h-0.4C73,36.9,73,36.8,73,36.6c0,0,0,0,0-0.1c0-0.4,0.2-0.6,0.2-0.6c0-0.1,0-0.2,0-0.2
	c0,0,0-0.1,0-0.1c0-0.1-0.1-0.2-0.1-0.3c0,0,0-0.1-0.1-0.1c-0.1-0.1-0.2-0.1-0.2-0.2c-0.2-0.1-0.3-0.1-0.3-0.1s-0.1,0-0.3,0.1
	c-0.1,0.1-0.2,0.1-0.2,0.2c0,0,0,0.1-0.1,0.1c-0.1,0.1-0.2,0.2-0.2,0.4c0,0.1,0,0.2,0,0.2c0,0,0.2,0.3,0.2,0.6c0,0,0,0,0,0.1
	c0,0.2-0.1,0.3-0.2,0.5h-0.4c-0.2-0.2-0.2-0.3-0.2-0.5c0,0,0,0,0-0.1c0-0.4,0.2-0.6,0.2-0.6c0-0.1,0-0.2,0-0.2
	c0-0.1-0.1-0.3-0.2-0.4c0,0,0-0.1-0.1-0.1c-0.1-0.1-0.2-0.1-0.2-0.2c-0.2-0.1-0.3-0.1-0.3-0.1s-0.1,0-0.3,0.1
	c-0.1,0.1-0.2,0.1-0.2,0.2c0,0,0,0.1-0.1,0.1c0,0.1-0.1,0.1-0.1,0.2c0,0.1,0,0.1,0,0.2c0,0.1,0,0.2,0,0.2c0,0,0.2,0.3,0.2,0.6
	c0,0,0,0,0,0.1c0,0.2-0.1,0.3-0.2,0.5h-0.4c-0.2-0.2-0.2-0.3-0.2-0.5c0,0,0,0,0-0.1c0-0.4,0.2-0.6,0.2-0.6c0-0.1,0-0.2,0-0.2
	c0-0.1-0.1-0.3-0.2-0.4c0,0,0-0.1-0.1-0.1c-0.1-0.1-0.2-0.1-0.2-0.2c-0.2-0.1-0.3-0.1-0.3-0.1s-0.1,0-0.3,0.1
	c-0.1,0.1-0.2,0.1-0.2,0.2c0,0-0.1,0.1-0.1,0.1c-0.1,0.1-0.1,0.2-0.2,0.4c0,0.1,0,0.2,0,0.2c0,0,0.2,0.3,0.2,0.6c0,0,0,0,0,0.1
	c0,0.2-0.1,0.3-0.2,0.5h-0.4c-0.2-0.2-0.2-0.3-0.2-0.5c0,0,0,0,0-0.1c0-0.4,0.2-0.6,0.2-0.6c0-0.1,0-0.2,0-0.2
	c0-0.1-0.1-0.3-0.2-0.4c0,0,0-0.1-0.1-0.1c-0.1-0.1-0.1-0.1-0.2-0.2c-0.2-0.1-0.3-0.1-0.3-0.1s-0.1,0-0.3,0.1
	c-0.1,0.1-0.2,0.1-0.2,0.2c0,0,0,0.1-0.1,0.1c-0.1,0.1-0.1,0.2-0.2,0.3c0,0,0,0.1,0,0.1c0,0.1,0,0.2,0,0.2c0,0,0.2,0.3,0.2,0.6
	c0,0,0,0,0,0.1c0,0.2-0.1,0.3-0.2,0.5h-0.4c-0.2-0.2-0.2-0.3-0.2-0.5c0,0,0,0,0-0.1c0-0.4,0.2-0.6,0.2-0.6c0-0.1,0-0.2,0-0.2
	c0-0.1-0.1-0.3-0.2-0.4c0,0,0-0.1-0.1-0.1c-0.1-0.1-0.2-0.1-0.2-0.2c-0.2-0.1-0.3-0.1-0.3-0.1s-0.1,0-0.3,0.1
	c-0.1,0.1-0.2,0.1-0.2,0.2c0,0-0.1,0.1-0.1,0.1c-0.1,0.1-0.2,0.2-0.2,0.4c0,0.1,0,0.2,0,0.2c0,0,0.2,0.3,0.2,0.6c0,0,0,0,0,0.1
	c0,0.2-0.1,0.3-0.2,0.5h-0.4c-0.2-0.2-0.2-0.3-0.2-0.5c0,0,0,0,0-0.1c0-0.4,0.2-0.6,0.2-0.6c0-0.1,0-0.2,0-0.2
	c0-0.1-0.1-0.3-0.2-0.4c0,0,0-0.1-0.1-0.1c-0.1-0.1-0.2-0.1-0.2-0.2c-0.2-0.1-0.3-0.1-0.3-0.1s-0.1,0-0.3,0.1
	c-0.1,0.1-0.2,0.1-0.2,0.2c0,0-0.1,0.1-0.1,0.1c-0.1,0.1-0.1,0.2-0.2,0.4c0,0.1,0,0.2,0,0.2c0,0,0.2,0.3,0.2,0.6c0,0,0,0,0,0.1
	c0,0.2-0.1,0.3-0.2,0.5H62c-0.1-0.2-0.2-0.3-0.2-0.5c0,0,0,0,0-0.1c0-0.4,0.2-0.6,0.2-0.6c0-0.1,0-0.2,0-0.2c0-0.1-0.1-0.3-0.2-0.4
	c0,0,0-0.1-0.1-0.1c-0.1-0.1-0.2-0.1-0.2-0.2c-0.1-0.1-0.3-0.1-0.3-0.1s-0.1,0-0.3,0.1c-0.1,0.1-0.2,0.1-0.2,0.2c0,0,0,0.1-0.1,0.1
	c0,0,0,0.1-0.1,0.1c-0.1,0.1-0.1,0.2-0.1,0.3c0,0.1,0,0.2,0,0.2c0,0,0.2,0.3,0.2,0.6c0,0,0,0,0,0.1c0,0.2-0.1,0.3-0.2,0.5h-0.4
	C60,36.9,60,36.8,60,36.6c0,0,0,0,0-0.1c0-0.4,0.2-0.6,0.2-0.6c0-0.1,0-0.2,0-0.2c0,0,0-0.1,0-0.1c0-0.1-0.1-0.2-0.1-0.3
	c0,0,0-0.1-0.1-0.1c-0.1-0.1-0.2-0.1-0.2-0.2c-0.2-0.1-0.3-0.1-0.3-0.1s-0.1,0-0.3,0.1c-0.1,0.1-0.2,0.1-0.2,0.2c0,0,0,0.1-0.1,0.1
	c-0.1,0.1-0.2,0.2-0.2,0.4c0,0.1,0,0.2,0,0.2c0,0,0.2,0.3,0.2,0.6c0,0,0,0,0,0.1c0,0.2-0.1,0.3-0.2,0.5h-0.4
	c-0.1-0.2-0.2-0.3-0.2-0.5c0,0,0,0,0-0.1c0-0.4,0.2-0.6,0.2-0.6c0-0.1,0-0.2,0-0.2c0-0.1-0.1-0.3-0.2-0.4c0,0,0-0.1-0.1-0.1
	c-0.1-0.1-0.2-0.1-0.2-0.2c-0.1-0.1-0.3-0.1-0.3-0.1s-0.1,0-0.3,0.1c-0.1,0.1-0.2,0.1-0.2,0.2c0,0,0,0.1-0.1,0.1
	c0,0.1-0.1,0.1-0.1,0.2c0,0.1,0,0.1,0,0.2c0,0.1,0,0.2,0,0.2c0,0,0.2,0.3,0.2,0.6c0,0,0,0,0,0.1c0,0.2-0.1,0.3-0.2,0.5h-0.4
	c-0.2-0.2-0.2-0.3-0.2-0.5c0,0,0,0,0-0.1c0-0.4,0.2-0.6,0.2-0.6c0-0.1,0-0.1,0-0.2c0-0.1,0-0.1,0-0.2c0-0.1-0.1-0.2-0.1-0.2
	c0,0-0.1-0.1-0.1-0.1C56.2,35.1,56.1,35,56,35c0,0-0.1,0-0.1,0v-0.5h0c0,0,0-1.1,0.5-1.2v-0.7H56V31v-0.3h0.1h0.3v-0.4h-0.2H56v-0.7
	c0-0.1,0-0.1,0-0.2c0-0.1,0-0.1-0.1-0.2c0,0,0-0.1-0.1-0.1c0-0.1-0.1-0.1-0.2-0.2c0,0-0.1-0.1-0.1-0.1c-0.1-0.1-0.1-0.1-0.2-0.2
	c0,0-0.1,0-0.1-0.1c-0.1-0.1-0.1-0.1-0.2-0.1c0,0-0.1-0.1-0.1-0.1c0,0,0,0,0,0c0,0,0,0,0,0l0-0.6L55,27.1l-0.1,0.6l-0.1,0.6
	c0,0,0,0,0,0c0,0,0,0,0,0c0,0-0.1,0-0.1,0.1c0,0-0.1,0.1-0.2,0.1c0,0-0.1,0-0.1,0.1c-0.1,0-0.1,0.1-0.2,0.2c0,0-0.1,0.1-0.1,0.1
	c-0.1,0.1-0.1,0.1-0.2,0.2c0,0,0,0.1-0.1,0.1c0,0.1,0,0.1-0.1,0.2s0,0.1,0,0.2v0.7h-0.4v0.4h0.4v1.8h-0.4v0.6
	c0.5,0.2,0.6,1.2,0.6,1.2h0v2.7h0v9.7c0,0,0,0-0.1,0c0,0,0,0-0.1,0.1c-0.1,0-0.1,0.1-0.2,0.1c0,0,0,0-0.1,0.1
	c-0.2,0.2-0.3,0.4-0.3,0.6c0,0.1,0,0.1,0,0.2c0,0,0.3,0.3,0.2,0.7c0,0.1,0,0.2-0.1,0.3c0,0.1-0.1,0.2-0.2,0.3h-0.6
	c-0.1-0.1-0.2-0.3-0.2-0.4c0-0.1,0-0.1,0-0.2c0-0.4,0.2-0.7,0.2-0.7c0-0.1,0-0.2,0-0.3c0-0.2-0.1-0.4-0.2-0.5
	c-0.2-0.2-0.5-0.4-0.5-0.4s-0.3,0.1-0.5,0.4c-0.1,0.1-0.2,0.3-0.2,0.5c0,0.1,0,0.2,0,0.3c0,0,0.3,0.3,0.2,0.7c0,0.1,0,0.2-0.1,0.3
	c0,0.1-0.1,0.2-0.2,0.3h-0.6c-0.1-0.1-0.2-0.3-0.2-0.4c0-0.1,0-0.1,0-0.2c0-0.4,0.2-0.7,0.2-0.7c0-0.1,0-0.2,0-0.3
	c0-0.2-0.1-0.4-0.2-0.5c-0.2-0.2-0.5-0.4-0.5-0.4s-0.3,0.1-0.5,0.4c-0.1,0.1-0.2,0.3-0.2,0.5c0,0.1,0,0.2,0,0.3c0,0,0.3,0.3,0.2,0.7
	c0,0.1,0,0.2-0.1,0.4c0,0.1-0.1,0.1-0.2,0.2h-0.6c-0.1-0.1-0.2-0.3-0.2-0.4c0-0.1,0-0.1,0-0.2c0-0.4,0.2-0.7,0.2-0.7
	c0-0.1,0-0.2,0-0.3c0-0.2-0.1-0.4-0.2-0.5c-0.2-0.2-0.5-0.4-0.5-0.4s-0.3,0.1-0.5,0.4c-0.1,0.1-0.2,0.3-0.2,0.5c0,0.1,0,0.2,0,0.3
	c0,0,0.3,0.3,0.2,0.7c0,0.1,0,0.2-0.1,0.4c0,0.1-0.1,0.1-0.1,0.2h-0.5h-0.1c-0.1-0.1-0.1-0.2-0.2-0.2c-0.1-0.1-0.1-0.2-0.1-0.4
	c0-0.4,0.2-0.7,0.2-0.7c0-0.1,0-0.2,0-0.3c0-0.2-0.1-0.4-0.2-0.5c-0.2-0.2-0.5-0.4-0.5-0.4s-0.3,0.1-0.5,0.4
	c-0.1,0.1-0.2,0.3-0.2,0.5c0,0.1,0,0.2,0,0.3c0,0,0.3,0.3,0.2,0.7c0,0.1,0,0.2-0.1,0.3c0,0.1-0.1,0.2-0.2,0.3h-0.6
	c-0.1-0.1-0.1-0.2-0.2-0.2c-0.1-0.1-0.1-0.2-0.1-0.4c0-0.4,0.2-0.7,0.2-0.7c0-0.1,0-0.2,0-0.3c0-0.2-0.1-0.4-0.2-0.5
	c-0.2-0.2-0.5-0.4-0.5-0.4s-0.3,0.1-0.5,0.4c-0.1,0.1-0.2,0.3-0.2,0.5c0,0.1,0,0.2,0,0.3c0,0,0.3,0.3,0.2,0.7c0,0.1,0,0.2-0.1,0.3
	c0,0.1-0.1,0.2-0.2,0.3h-0.6c-0.1-0.1-0.2-0.3-0.2-0.4c0-0.1,0-0.1,0-0.2c0-0.4,0.2-0.7,0.2-0.7c0-0.1,0-0.2,0-0.3
	c0-0.2-0.1-0.4-0.2-0.5c-0.2-0.2-0.5-0.4-0.5-0.4s-0.3,0.1-0.5,0.4c-0.1,0.1-0.2,0.3-0.2,0.5c0,0.1,0,0.2,0,0.3c0,0,0.3,0.3,0.2,0.7
	c0,0.1,0,0.2-0.1,0.3c0,0.1-0.1,0.2-0.2,0.3h-0.6c-0.1-0.1-0.2-0.3-0.2-0.4c0-0.1,0-0.1,0-0.2c0-0.4,0.2-0.7,0.2-0.7
	c0-0.1,0-0.2,0-0.3c0-0.2-0.1-0.4-0.2-0.5c-0.2-0.2-0.5-0.4-0.5-0.4s-0.3,0.1-0.5,0.4c-0.1,0.1-0.2,0.3-0.2,0.5c0,0.1,0,0.2,0,0.3
	c0,0,0.3,0.3,0.2,0.7c0,0.1,0,0.2-0.1,0.4c0,0.1-0.1,0.1-0.1,0.2h-0.6c-0.1-0.1-0.1-0.2-0.2-0.2c-0.1-0.1-0.1-0.2-0.1-0.4
	c0-0.4,0.2-0.7,0.2-0.7c0-0.1,0-0.2,0-0.3c0-0.2-0.1-0.4-0.2-0.5c-0.2-0.2-0.5-0.4-0.5-0.4s-0.3,0.1-0.5,0.4
	c-0.1,0.1-0.2,0.3-0.2,0.5c0,0.1,0,0.2,0,0.3c0,0,0.3,0.3,0.2,0.7c0,0.1,0,0.2-0.1,0.4c0,0.1-0.1,0.1-0.1,0.2h-0.6
	c-0.1-0.1-0.1-0.2-0.2-0.2c-0.1-0.1-0.1-0.2-0.1-0.4c0-0.4,0.2-0.7,0.2-0.7c0-0.1,0-0.2,0-0.3c0-0.2-0.1-0.4-0.2-0.5
	c-0.2-0.2-0.5-0.4-0.5-0.4s-0.3,0.1-0.5,0.4c-0.1,0.1-0.2,0.3-0.2,0.5c0,0.1,0,0.2,0,0.3c0,0,0.3,0.3,0.2,0.7c0,0.1,0,0.2-0.1,0.3
	c0,0.1-0.1,0.2-0.2,0.3h-0.6c-0.1-0.1-0.2-0.3-0.2-0.4c0-0.1,0-0.1,0-0.2c0-0.4,0.2-0.7,0.2-0.7c0-0.1,0-0.2,0-0.3
	c0-0.2-0.1-0.4-0.2-0.5c-0.2-0.2-0.5-0.4-0.5-0.4s-0.3,0.1-0.5,0.4c-0.1,0.1-0.2,0.3-0.2,0.5c0,0.1,0,0.2,0,0.3c0,0,0.3,0.3,0.2,0.7
	c0,0.1,0,0.2-0.1,0.3c0,0.1-0.1,0.2-0.2,0.3h-0.6c-0.1-0.1-0.2-0.3-0.2-0.4c0-0.1,0-0.1,0-0.2c0-0.4,0.2-0.7,0.2-0.7
	c0-0.1,0-0.2,0-0.3c0-0.2-0.1-0.4-0.2-0.5c-0.2-0.2-0.5-0.4-0.5-0.4s-0.3,0.1-0.5,0.4c-0.1,0.1-0.2,0.3-0.2,0.5c0,0.1,0,0.2,0,0.3
	c0,0,0.3,0.3,0.2,0.7c0,0.1,0,0.2-0.1,0.4c0,0.1-0.1,0.1-0.1,0.2h-0.6c-0.1-0.1-0.2-0.3-0.2-0.4c0-0.1,0-0.1,0-0.2
	c0-0.4,0.2-0.7,0.2-0.7c0-0.1,0-0.2,0-0.3c0-0.2-0.1-0.4-0.2-0.5c-0.2-0.2-0.5-0.4-0.5-0.4s-0.3,0.1-0.5,0.4
	c-0.1,0.1-0.2,0.3-0.2,0.5c0,0.1,0,0.2,0,0.3c0,0,0.3,0.3,0.2,0.7c0,0.1,0,0.2-0.1,0.4c0,0.1-0.1,0.1-0.1,0.2h-0.6
	c0,0-0.1-0.1-0.1-0.1c0,0-0.1-0.1-0.1-0.1c-0.1-0.1-0.1-0.2-0.1-0.3c0-0.2,0.1-0.5,0.2-0.6c0-0.1,0.1-0.1,0.1-0.1c0-0.1,0-0.2,0-0.3
	c0-0.1,0-0.2-0.1-0.3c0-0.1-0.1-0.1-0.1-0.2c-0.2-0.2-0.5-0.4-0.5-0.4s-0.3,0.1-0.5,0.4c-0.1,0.1-0.2,0.3-0.2,0.5c0,0.1,0,0.2,0,0.3
	c0,0,0.3,0.3,0.2,0.7c0,0.1,0,0.2-0.1,0.3c0,0.1-0.1,0.2-0.2,0.3h-0.6C26,49.1,26,49,25.9,49c-0.1-0.1-0.1-0.2-0.1-0.4
	c0-0.4,0.2-0.7,0.2-0.7c0-0.1,0-0.2,0-0.3c0-0.2-0.1-0.4-0.2-0.5c-0.2-0.2-0.5-0.4-0.5-0.4s-0.3,0.1-0.5,0.4
	c-0.1,0.1-0.2,0.3-0.2,0.5c0,0.1,0,0.2,0,0.3c0,0,0.3,0.3,0.2,0.7c0,0.1,0,0.2-0.1,0.3c0,0.1-0.1,0.2-0.2,0.3H24
	c-0.1-0.1-0.2-0.3-0.2-0.4c0-0.1,0-0.1,0-0.2c0-0.4,0.2-0.7,0.2-0.7c0-0.1,0-0.2,0-0.3c0-0.2-0.1-0.4-0.2-0.5
	c-0.2-0.2-0.5-0.4-0.5-0.4s-0.3,0.1-0.5,0.4c-0.1,0.1-0.2,0.3-0.2,0.5c0,0.1,0,0.2,0,0.3c0,0,0.3,0.3,0.2,0.7c0,0.1,0,0.2-0.1,0.3
	c0,0.1-0.1,0.2-0.2,0.3H22c0,0,0,0,0-0.1c-0.1-0.2-0.2-0.4-0.2-0.5c0-0.3,0.1-0.5,0.2-0.6c0,0,0,0,0,0c0-0.1,0-0.2,0-0.3
	c0-0.1,0-0.2-0.1-0.3c0-0.1-0.1-0.2-0.2-0.2c-0.2-0.2-0.5-0.4-0.5-0.4s-0.3,0.1-0.5,0.4c-0.1,0.1-0.2,0.3-0.2,0.5c0,0.1,0,0.2,0,0.3
	c0,0,0.3,0.3,0.2,0.7c0,0.1,0,0.2-0.1,0.4c0,0.1-0.1,0.1-0.2,0.2h-0.6c-0.1-0.1-0.1-0.2-0.1-0.2c-0.1-0.1-0.1-0.2-0.1-0.4
	c0-0.4,0.2-0.7,0.2-0.7c0-0.1,0-0.2,0-0.3c0-0.2-0.1-0.4-0.2-0.5c-0.2-0.2-0.5-0.4-0.5-0.4s-0.3,0.1-0.5,0.4
	c-0.1,0.1-0.2,0.3-0.2,0.5c0,0.1,0,0.2,0,0.3c0,0,0.3,0.3,0.2,0.7c0,0.1,0,0.2-0.1,0.4c0,0.1-0.1,0.1-0.1,0.2h-0.6
	c-0.1-0.1-0.1-0.2-0.2-0.2c-0.1-0.1-0.1-0.2-0.1-0.4c0-0.4,0.2-0.7,0.2-0.7c0-0.1,0-0.2,0-0.3c0-0.2-0.1-0.4-0.2-0.5
	c-0.1-0.1-0.2-0.2-0.2-0.2c-0.2-0.1-0.3-0.2-0.3-0.2s-0.3,0.1-0.5,0.4c-0.1,0.1-0.2,0.3-0.2,0.5c0,0.1,0,0.2,0,0.3
	c0,0,0.3,0.3,0.2,0.7c0,0.1,0,0.2-0.1,0.3c0,0.1-0.1,0.2-0.2,0.3h-0.6c-0.1-0.1-0.2-0.2-0.2-0.4c0-0.1,0-0.1,0-0.2
	c0-0.4,0.2-0.7,0.2-0.7c0-0.1,0-0.2,0-0.3c0-0.2-0.1-0.4-0.2-0.5c-0.2-0.2-0.5-0.4-0.5-0.4s-0.3,0.1-0.5,0.4
	c-0.1,0.1-0.2,0.3-0.2,0.5c0,0.1,0,0.2,0,0.3c0,0,0.3,0.3,0.2,0.7c0,0.1,0,0.2-0.1,0.3c0,0.1-0.1,0.2-0.2,0.3h-0.6
	c-0.1-0.1-0.2-0.2-0.2-0.4c0-0.1,0-0.1,0-0.2c0-0.4,0.2-0.7,0.2-0.7c0-0.1,0-0.2,0-0.3c0-0.2-0.1-0.4-0.2-0.5
	c-0.2-0.2-0.5-0.4-0.5-0.4s-0.3,0.1-0.5,0.4c-0.1,0.1-0.2,0.3-0.2,0.5c0,0.1,0,0.2,0,0.3c0,0,0.3,0.3,0.2,0.7c0,0.1,0,0.2-0.1,0.3
	c0,0.1-0.1,0.2-0.2,0.2h-0.6c-0.1-0.1-0.2-0.2-0.2-0.4c0-0.1,0-0.1,0-0.2c0-0.4,0.2-0.7,0.2-0.7c0-0.1,0-0.1,0-0.2c0,0,0-0.1,0-0.1
	c0-0.1,0-0.1,0-0.2c0,0,0-0.1-0.1-0.2c0-0.1-0.1-0.1-0.1-0.2c0,0,0,0,0-0.1c0,0-0.1-0.1-0.2-0.1c0,0-0.1-0.1-0.1-0.1V41h0.1
	c0,0,0-0.1,0-0.2c0,0,0-0.1,0-0.1c0,0,0,0,0-0.1c0,0,0-0.1,0-0.2c0-0.1,0-0.2,0.1-0.3c0-0.1,0-0.1,0.1-0.2c0-0.1,0.1-0.2,0.1-0.3
	c0-0.1,0.1-0.1,0.1-0.2c0.1-0.2,0.3-0.4,0.5-0.5c0.1,0,0.1-0.1,0.2-0.1c0.1,0,0.2-0.1,0.2-0.1c0,0,0.1,0,0.1,0v-1.2h-1.2v-3.4h1.2
	v-0.7h-0.9v-1.3c0-0.1,0-0.2,0-0.2c0-0.1-0.1-0.2-0.1-0.2c0-0.1-0.1-0.1-0.1-0.2c-0.1-0.1-0.1-0.1-0.2-0.2c-0.3-0.3-0.6-0.6-1-0.8
	c-0.1-0.1-0.2-0.1-0.2-0.2c-0.1,0-0.2-0.1-0.2-0.1c-0.2-0.1-0.3-0.2-0.5-0.2c-0.1-0.1-0.2-0.1-0.2-0.1L9,27.7l-0.3,2.1
	c0,0-0.1,0-0.2,0.1C8.4,30,8.2,30.1,8,30.2c-0.1,0-0.2,0.1-0.2,0.1c-0.1,0-0.1,0.1-0.2,0.2c-0.4,0.2-0.7,0.5-1,0.8
	c-0.1,0.1-0.1,0.1-0.2,0.2c-0.1,0.1-0.1,0.1-0.1,0.2c0,0.1-0.1,0.2-0.1,0.2c0,0.1,0,0.2,0,0.2v1.3H5.3v0.7h1.2v3.4H5.3v1.2
	c0,0,0.1,0,0.1,0c0.1,0,0.2,0,0.2,0.1c0.1,0,0.1,0.1,0.2,0.1c0.2,0.1,0.3,0.3,0.5,0.5c0,0.1,0.1,0.1,0.1,0.2
	c0.1,0.1,0.1,0.2,0.1,0.3c0,0.1,0,0.1,0.1,0.2c0,0.1,0,0.2,0.1,0.3c0,0.1,0,0.1,0,0.2c0,0,0,0,0,0.1c0,0,0,0.1,0,0.1
	c0,0.1,0,0.2,0,0.2v27.2h47.2h4.3h19.2h4.3H129V41c0,0,0-0.1,0-0.2c0,0,0-0.1,0-0.1c0,0,0,0,0-0.1c0,0,0-0.1,0-0.2
	c0-0.1,0-0.2,0.1-0.3c0-0.1,0-0.1,0.1-0.2c0-0.1,0.1-0.2,0.1-0.3c0-0.1,0.1-0.1,0.1-0.2c0.1-0.2,0.3-0.4,0.5-0.5
	c0.1,0,0.1-0.1,0.2-0.1c0.1,0,0.1-0.1,0.2-0.1c0,0,0.1,0,0.1,0v-1.2h-1.2v-3.4h1.2v-0.7L129.6,33.5L129.6,33.5L129.6,33.5z
	 M127.3,34.2h1.1v3.4h-1.1V34.2z M125.2,34.2h1.1v3.4h-1.1V34.2z M118.6,58.7c0.4-0.3,0.9-0.5,1.5-0.5c0.6,0,1.1,0.2,1.5,0.5
	c0.1,0.1,0.2,0.1,0.2,0.2c0.4,0.3,0.6,0.7,0.8,0.9c0,0.1,0.1,0.1,0.1,0.2c0,0,0.1,0.1,0.1,0.1c0.1,0.1,0.1,0.2,0.1,0.2V67h-5.7v-6.8
	c0,0,0-0.1,0.1-0.2c0,0,0-0.1,0.1-0.1c0,0,0.1-0.1,0.1-0.2c0.2-0.3,0.5-0.6,0.8-0.9C118.5,58.8,118.6,58.7,118.6,58.7z M110.4,58.8
	c0.1-0.1,0.2-0.1,0.2-0.2c0.4-0.3,0.9-0.5,1.5-0.5c0.6,0,1.1,0.2,1.5,0.5c0.1,0.1,0.2,0.1,0.2,0.2c0.4,0.3,0.6,0.7,0.8,0.9
	c0,0.1,0.1,0.1,0.1,0.2c0,0,0,0.1,0.1,0.1c0.1,0.1,0.1,0.2,0.1,0.2V67h-5.7v-6.8c0,0,0-0.1,0.1-0.2c0,0,0.1-0.1,0.1-0.1
	s0.1-0.1,0.1-0.2C109.7,59.5,110,59.1,110.4,58.8z M101.2,67v-6.8c0,0,0-0.1,0.1-0.2c0,0,0-0.1,0.1-0.1c0,0,0.1-0.1,0.1-0.2
	c0.2-0.3,0.5-0.6,0.8-0.9c0.1-0.1,0.1-0.1,0.2-0.2c0.4-0.3,0.9-0.5,1.5-0.5c0.6,0,1.1,0.2,1.5,0.5c0.1,0.1,0.2,0.1,0.2,0.2
	c0.4,0.3,0.7,0.7,0.8,0.9c0,0.1,0.1,0.1,0.1,0.2s0.1,0.1,0.1,0.1c0.1,0.1,0.1,0.2,0.1,0.2V67H101.2z M93.2,67v-6.8
	c0,0,0-0.1,0.1-0.2c0,0,0.1-0.1,0.1-0.1c0,0,0.1-0.1,0.1-0.2c0.2-0.3,0.5-0.6,0.8-0.9c0.1-0.1,0.1-0.1,0.2-0.2
	c0.4-0.3,0.9-0.5,1.5-0.5c0.6,0,1.1,0.2,1.5,0.5c0.1,0.1,0.2,0.1,0.2,0.2c0.4,0.3,0.7,0.7,0.8,0.9c0,0.1,0.1,0.1,0.1,0.2
	c0,0,0.1,0.1,0.1,0.1c0.1,0.1,0.1,0.2,0.1,0.2V67H93.2z M85.4,59.8c0.2-0.3,0.5-0.6,0.8-0.9c0.1-0.1,0.1-0.1,0.2-0.2
	c0.4-0.3,0.9-0.5,1.5-0.5c0.6,0,1.1,0.2,1.5,0.5c0.1,0.1,0.2,0.1,0.2,0.2c0.4,0.3,0.6,0.7,0.8,0.9c0,0.1,0.1,0.1,0.1,0.2
	c0,0,0,0.1,0.1,0.1c0.1,0.1,0.1,0.2,0.1,0.2v6.8h-5.7v-6.8c0,0,0-0.1,0.1-0.2c0,0,0-0.1,0.1-0.1C85.4,59.9,85.4,59.8,85.4,59.8z
	 M60.2,67V48.6c0,0,0.2-0.5,0.7-1.3c0.1-0.2,0.2-0.3,0.3-0.5c0.1-0.2,0.3-0.3,0.4-0.5c0.1-0.2,0.3-0.4,0.5-0.5
	c0.6-0.7,1.5-1.4,2.4-2c0.4-0.2,0.8-0.4,1.2-0.5c0.1,0,0.3-0.1,0.4-0.1c0.3-0.1,0.6-0.2,0.9-0.2s0.6-0.1,1-0.1c0.3,0,0.7,0,1,0.1
	c0.3,0,0.6,0.1,0.9,0.2c0.1,0,0.3,0.1,0.4,0.1c0.4,0.1,0.8,0.3,1.2,0.5c1,0.5,1.8,1.3,2.4,2c0.2,0.2,0.3,0.4,0.5,0.5
	c0.1,0.2,0.3,0.3,0.4,0.5c0.1,0.2,0.2,0.3,0.3,0.5c0.5,0.8,0.7,1.3,0.7,1.3V67H60.2z M80.4,30.6h0.4v1.8h-0.4V30.6z M81.2,30.6h0.4
	v1.8h-0.4V30.6z M55.1,30.7h0.4v1.8h-0.4V30.7z M54.3,30.7h0.4v1.8h-0.4V30.7z M49.6,58.8c0.4,0.3,0.7,0.7,0.8,0.9
	c0,0.1,0.1,0.1,0.1,0.2c0,0,0.1,0.1,0.1,0.1c0.1,0.1,0.1,0.2,0.1,0.2V67H45v-6.8c0,0,0-0.1,0.1-0.2c0,0,0.1-0.1,0.1-0.1
	s0.1-0.1,0.1-0.2c0.2-0.3,0.5-0.6,0.8-0.9c0.1-0.1,0.2-0.1,0.2-0.2c0.4-0.3,0.9-0.5,1.5-0.5c0.6,0,1.1,0.2,1.5,0.5
	C49.5,58.7,49.5,58.8,49.6,58.8z M37,67v-6.8c0,0,0-0.1,0.1-0.2c0,0,0-0.1,0.1-0.1c0,0,0.1-0.1,0.1-0.2c0.2-0.3,0.5-0.6,0.8-0.9
	c0.1-0.1,0.1-0.1,0.2-0.2c0.4-0.3,0.9-0.5,1.5-0.5c0.6,0,1.1,0.2,1.5,0.5c0.1,0.1,0.2,0.1,0.2,0.2c0.4,0.3,0.7,0.7,0.8,0.9
	c0,0.1,0.1,0.1,0.1,0.2c0,0,0,0.1,0.1,0.1c0.1,0.1,0.1,0.2,0.1,0.2V67H37z M28.9,67v-6.8c0,0,0-0.1,0.1-0.2c0,0,0-0.1,0.1-0.1
	c0,0,0.1-0.1,0.1-0.2c0.2-0.3,0.5-0.6,0.8-0.9c0.1-0.1,0.1-0.1,0.2-0.2c0.4-0.3,0.9-0.5,1.5-0.5c0.6,0,1.1,0.2,1.5,0.5
	c0.1,0.1,0.2,0.1,0.2,0.2c0.4,0.3,0.6,0.7,0.8,0.9c0,0.1,0.1,0.1,0.1,0.2c0,0,0,0.1,0.1,0.1c0.1,0.1,0.1,0.2,0.1,0.2V67H28.9z
	 M25.3,58.7c0.1,0.1,0.2,0.1,0.2,0.2c0.4,0.3,0.7,0.7,0.8,0.9c0,0.1,0.1,0.1,0.1,0.2c0,0,0.1,0.1,0.1,0.1c0.1,0.1,0.1,0.2,0.1,0.2
	V67h-5.7v-6.8c0,0,0-0.1,0.1-0.2c0,0,0-0.1,0.1-0.1c0,0,0.1-0.1,0.1-0.2c0.2-0.3,0.5-0.6,0.8-0.9c0.1-0.1,0.1-0.1,0.2-0.2
	c0.4-0.3,0.9-0.5,1.5-0.5C24.4,58.2,24.9,58.4,25.3,58.7z M12.9,60.3c0,0,0-0.1,0.1-0.2c0,0,0-0.1,0.1-0.1s0.1-0.1,0.1-0.2
	c0.2-0.3,0.5-0.6,0.8-0.9c0.1-0.1,0.2-0.1,0.2-0.2c0.4-0.3,0.9-0.5,1.5-0.5c0.6,0,1.1,0.2,1.5,0.5c0.1,0.1,0.2,0.1,0.2,0.2
	c0.4,0.3,0.6,0.7,0.8,0.9c0,0.1,0.1,0.1,0.1,0.2c0,0,0,0.1,0.1,0.1c0.1,0.1,0.1,0.2,0.1,0.2V67h-5.7V60.3L12.9,60.3z M9.6,34.2h1.1
	v3.4H9.6V34.2z M7.5,34.2h1.1v3.4H7.5V34.2z"/>
<path class="st0" d="M113.5,48.7L113.5,48.7c0.1-0.1,0.1-0.2,0-0.3C113.5,48.5,113.5,48.6,113.5,48.7z"/>
<path class="st0" d="M24.4,48.7c0-0.1,0-0.2,0-0.3C24.3,48.4,24.3,48.6,24.4,48.7L24.4,48.7z"/>
<path class="st0" d="M125.8,34.7h-0.1v2.4h0.1V34.7z"/>
<path class="st0" d="M121.7,48.7c0-0.1,0-0.2,0-0.3C121.7,48.4,121.6,48.6,121.7,48.7L121.7,48.7z"/>
<path class="st0" d="M119.7,48.7L119.7,48.7c0.1-0.1,0.1-0.2,0-0.3C119.6,48.5,119.6,48.6,119.7,48.7z"/>
<path class="st0" d="M111.5,48.7c0-0.1,0-0.2,0-0.3C111.4,48.4,111.4,48.6,111.5,48.7L111.5,48.7z"/>
<path class="st0" d="M22.3,48.7L22.3,48.7c0.1-0.1,0.1-0.2,0-0.3C22.3,48.5,22.3,48.6,22.3,48.7z"/>
<path class="st0" d="M127.8,34.7L127.8,34.7l-0.1,2.4h0.1V34.7z"/>
<path class="st0" d="M123.8,48.4c0,0.1-0.1,0.2,0,0.3h0C123.8,48.6,123.8,48.5,123.8,48.4z"/>
<path class="st0" d="M46.8,48.7L46.8,48.7c0.1-0.1,0.1-0.2,0-0.3C46.8,48.5,46.8,48.6,46.8,48.7z"/>
<path class="st0" d="M12.1,48.7L12.1,48.7c0.1-0.1,0.1-0.2,0-0.3C12.1,48.5,12,48.6,12.1,48.7z"/>
<path class="st0" d="M48.9,48.7c0-0.1,0-0.2,0-0.3C48.9,48.4,48.8,48.6,48.9,48.7L48.9,48.7z"/>
<path class="st0" d="M14.2,48.7c0-0.1,0-0.2,0-0.3C14.1,48.4,14.1,48.6,14.2,48.7L14.2,48.7z"/>
<path class="st0" d="M84.9,48.7c0-0.1,0-0.2,0-0.3C84.9,48.4,84.9,48.6,84.9,48.7L84.9,48.7z"/>
<path class="st0" d="M53,48.7c0-0.1,0-0.2,0-0.3C53,48.4,52.9,48.6,53,48.7L53,48.7z"/>
<path class="st0" d="M16.2,48.7L16.2,48.7c0.1-0.1,0.1-0.2,0-0.3C16.2,48.5,16.1,48.6,16.2,48.7z"/>
<path class="st0" d="M87,48.7c0-0.1,0-0.2,0-0.3C86.9,48.4,86.9,48.6,87,48.7L87,48.7z"/>
<path class="st0" d="M26.5,48.7c0-0.1,0-0.2,0-0.3C26.4,48.4,26.4,48.6,26.5,48.7L26.5,48.7z"/>
<path class="st0" d="M89,48.7L89,48.7c0.1-0.1,0.1-0.2,0-0.3C89,48.5,89,48.6,89,48.7z"/>
<path class="st0" d="M82.9,48.7c0-0.1,0-0.2,0-0.3C82.8,48.4,82.8,48.6,82.9,48.7L82.9,48.7z"/>
<path class="st0" d="M109.5,48.7c0-0.1,0-0.2,0-0.3C109.4,48.4,109.4,48.6,109.5,48.7L109.5,48.7z"/>
<path class="st0" d="M51,48.7c0-0.1,0-0.2,0-0.3C50.9,48.4,50.9,48.6,51,48.7L51,48.7z"/>
<path class="st0" d="M67.9,43.3c-4.5,0.2-7,4.7-7.3,5.4v17.9h14.6V48.7C74.9,48,72.5,43.5,67.9,43.3z M65,65.6v-7.3
	c0-1.9,2.8-2.8,3-2.8c0,0,0.1,0,0.2,0.1c0,0,0.1,0,0.1,0c0,0,0.1,0,0.1,0c0.1,0,0.2,0.1,0.3,0.1c0.1,0,0.2,0.1,0.2,0.1
	c0,0,0.1,0,0.1,0.1c0,0,0.1,0,0.1,0.1c0.1,0,0.2,0.1,0.3,0.2c0.1,0.1,0.2,0.2,0.3,0.2c0.2,0.1,0.3,0.2,0.4,0.4
	c0.4,0.4,0.7,0.9,0.7,1.5v7.3H65z"/>
<path class="st0" d="M117.6,48.7L117.6,48.7c0.1-0.1,0.1-0.2,0-0.3C117.6,48.5,117.6,48.6,117.6,48.7z"/>
<path class="st0" d="M115.6,48.7L115.6,48.7c0.1-0.1,0.1-0.2,0-0.3C115.5,48.5,115.5,48.6,115.6,48.7z"/>
<path class="st0" d="M113.9,45.8L113.9,45.8l0.1,0.8c0.2-0.1,0.3-0.2,0.4-0.2l0.2-0.1l0.2,0.1c0.3,0.1,0.6,0.3,0.8,0.6
	c0.2-0.3,0.6-0.5,0.8-0.6l0.2-0.1l0.2,0.1c0.3,0.1,0.6,0.3,0.8,0.6c0.2-0.3,0.5-0.5,0.8-0.6v-0.5c0,0,0-2,1.4-2.2v-1.2h-1.2V39h1.2
	v-0.7h-0.9V37c0-1.3-2.5-2.4-2.5-2.4l-0.3-2.1l-0.3,2.1c0,0-2.5,1.1-2.5,2.4v1.3h-0.9V39h1.2v3.4h-1.2v1.2
	C113.9,43.9,113.9,45.8,113.9,45.8z"/>
<path class="st0" d="M17.5,45.8L17.5,45.8l0.1,0.5c0.2,0.1,0.5,0.3,0.7,0.6c0.2-0.3,0.6-0.5,0.8-0.6l0.2-0.1l0.2,0.1
	c0.3,0.1,0.6,0.3,0.8,0.6c0.2-0.3,0.6-0.5,0.8-0.6l0.2-0.1l0.2,0.1c0.1,0.1,0.3,0.2,0.5,0.3v-0.8c0,0,0-2,1.4-2.2v-1.2h-1.2V39h1.2
	v-0.7h-0.9V37c0-1.3-2.5-2.4-2.5-2.4l-0.3-2.1l-0.3,2.1c0,0-2.5,1.1-2.5,2.4v1.3H16V39h1.2v3.4H16v1.2
	C17.5,43.9,17.5,45.8,17.5,45.8z"/>
<path class="st0" d="M18.2,48.7L18.2,48.7c0.1-0.1,0.1-0.2,0-0.3C18.2,48.5,18.2,48.6,18.2,48.7z"/>
<path class="st0" d="M20.3,48.7L20.3,48.7c0.1-0.1,0.1-0.2,0-0.3C20.3,48.5,20.2,48.6,20.3,48.7z"/>
<path class="st0" d="M40.7,48.7L40.7,48.7c0.1-0.1,0.1-0.2,0-0.3C40.7,48.5,40.7,48.6,40.7,48.7z"/>
<path class="st0" d="M38.7,48.7L38.7,48.7c0.1-0.1,0.1-0.2,0-0.3C38.6,48.5,38.6,48.6,38.7,48.7z"/>
<path class="st0" d="M42.8,48.7L42.8,48.7c0.1-0.1,0.1-0.2,0-0.3C42.7,48.5,42.7,48.6,42.8,48.7z"/>
<path class="st0" d="M28.1,46.2v0.4c0.1,0.1,0.3,0.2,0.4,0.4c0.2-0.3,0.6-0.5,0.8-0.7l0.2-0.1l0.2,0.1c0.3,0.1,0.6,0.3,0.8,0.7
	c0.2-0.3,0.6-0.5,0.8-0.7l0.2-0.1l0.2,0.1c0.3,0.1,0.6,0.3,0.8,0.7c0.2-0.3,0.6-0.5,0.8-0.7l0.2-0.1l0.2,0.1
	c0.2,0.1,0.6,0.3,0.8,0.7c0.2-0.3,0.6-0.5,0.8-0.7l0.2-0.1l0.2,0.1c0.3,0.1,0.6,0.3,0.8,0.7c0.2-0.3,0.6-0.5,0.8-0.7l0.2-0.1
	l0.2,0.1c0.3,0.1,0.6,0.3,0.8,0.7c0.2-0.3,0.6-0.5,0.8-0.7l0.2-0.1l0.2,0.1c0.3,0.1,0.6,0.3,0.8,0.7c0.2-0.3,0.6-0.5,0.8-0.7
	l0.2-0.1l0.2,0.1c0.3,0.1,0.6,0.3,0.8,0.7c0.2-0.3,0.6-0.5,0.8-0.7l0.2-0.1l0.2,0.1c0.3,0.1,0.6,0.3,0.8,0.7
	c0.2-0.3,0.6-0.5,0.8-0.7l0.2-0.1l0.2,0.1c0.2,0.1,0.4,0.2,0.6,0.4v-0.5c0.4-1,0.6-2.1,0.6-3.2c0-3.9-2.5-7.2-6.1-8.6h0.4
	c0,0-2.3-1.4-3.2-2.9c0,0-0.2-0.3-0.7-0.4v-0.6c0.3-0.1,0.5-0.4,0.5-0.7S38,29.1,37.6,29v-0.8c0.3-0.1,0.5-0.2,0.5-0.3
	c0-0.1-0.2-0.3-0.5-0.3l-0.3-2.3l-0.3,2.3c-0.3,0-0.5,0.2-0.5,0.3c0,0.1,0.2,0.3,0.5,0.3V29c-0.3,0.1-0.5,0.4-0.5,0.7
	s0.2,0.6,0.5,0.7v0.6c-0.5,0.1-0.7,0.4-0.7,0.4c-0.8,1.6-3.2,2.9-3.2,2.9h0.4c-3.6,1.4-6.1,4.7-6.1,8.6
	C27.5,44.1,27.7,45.2,28.1,46.2z"/>
<path class="st0" d="M30.5,48.7L30.5,48.7c0.1-0.1,0.1-0.2,0-0.3C30.5,48.5,30.4,48.6,30.5,48.7z"/>
<path class="st0" d="M44.8,48.7L44.8,48.7c0.1-0.1,0.1-0.2,0-0.3C44.8,48.5,44.7,48.6,44.8,48.7z"/>
<path class="st0" d="M32.5,48.7L32.5,48.7c0.1-0.1,0.1-0.2,0-0.3C32.5,48.5,32.5,48.6,32.5,48.7z"/>
<path class="st0" d="M34.6,48.7L34.6,48.7c0.1-0.1,0.1-0.2,0-0.3C34.6,48.5,34.5,48.6,34.6,48.7z"/>
<path class="st0" d="M36.6,48.7L36.6,48.7c0.1-0.1,0.1-0.2,0-0.3C36.6,48.5,36.6,48.6,36.6,48.7z"/>
<path class="st0" d="M28.5,48.7L28.5,48.7c0.1-0.1,0.1-0.2,0-0.3C28.4,48.5,28.4,48.6,28.5,48.7z"/>
<path class="st0" d="M103.3,48.7L103.3,48.7c0.1-0.1,0.1-0.2,0-0.3C103.3,48.5,103.3,48.6,103.3,48.7z"/>
<path class="st0" d="M101.3,48.7L101.3,48.7c0.1-0.1,0.1-0.2,0-0.3C101.2,48.5,101.2,48.6,101.3,48.7z"/>
<path class="st0" d="M107.4,48.7L107.4,48.7c0.1-0.1,0.1-0.2,0-0.3C107.4,48.5,107.3,48.6,107.4,48.7z"/>
<path class="st0" d="M105.3,48.7L105.3,48.7c0.1-0.1,0.1-0.2,0-0.3C105.3,48.5,105.3,48.6,105.3,48.7z"/>
<path class="st0" d="M91,48.7L91,48.7c0.1-0.1,0.1-0.2,0-0.3C91,48.5,91,48.6,91,48.7z"/>
<path class="st0" d="M93.1,48.7L93.1,48.7c0.1-0.1,0.1-0.2,0-0.3C93.1,48.5,93,48.6,93.1,48.7z"/>
<path class="st0" d="M99.2,48.7L99.2,48.7c0.1-0.1,0.1-0.2,0-0.3C99.2,48.5,99.2,48.6,99.2,48.7z"/>
<path class="st0" d="M95.1,48.7L95.1,48.7c0.1-0.1,0.1-0.2,0-0.3C95.1,48.5,95.1,48.6,95.1,48.7z"/>
<path class="st0" d="M97.2,48.7L97.2,48.7c0.1-0.1,0.1-0.2,0-0.3C97.2,48.5,97.1,48.6,97.2,48.7z"/>
<path class="st0" d="M89.2,46.2v0.5c0.2-0.2,0.4-0.3,0.6-0.4l0.2-0.1l0.2,0.1c0.3,0.1,0.6,0.3,0.8,0.6c0.2-0.3,0.6-0.5,0.8-0.6
	l0.2-0.1l0.2,0.1c0.3,0.1,0.6,0.3,0.8,0.6c0.2-0.3,0.6-0.5,0.8-0.6l0.2-0.1l0.2,0.1c0.3,0.1,0.6,0.3,0.8,0.6
	c0.2-0.3,0.6-0.5,0.8-0.6l0.2-0.1l0.2,0.1c0.3,0.1,0.6,0.3,0.8,0.6c0.2-0.3,0.6-0.5,0.8-0.6l0.2-0.1l0.2,0.1
	c0.3,0.1,0.6,0.3,0.8,0.6c0.2-0.3,0.6-0.5,0.8-0.6l0.2-0.1l0.2,0.1c0.3,0.1,0.6,0.3,0.8,0.6c0.2-0.3,0.6-0.5,0.8-0.6l0.2-0.1
	l0.2,0.1c0.3,0.1,0.6,0.3,0.8,0.6c0.2-0.3,0.6-0.5,0.8-0.6l0.2-0.1l0.2,0.1c0.3,0.1,0.6,0.3,0.8,0.6c0.2-0.3,0.6-0.5,0.8-0.6
	l0.2-0.1l0.2,0.1c0.3,0.1,0.6,0.3,0.8,0.6c0.1-0.1,0.2-0.2,0.3-0.3v-0.4c0.4-1,0.6-2.1,0.6-3.2c0-3.9-2.5-7.2-6.1-8.6h0.4
	c0,0-2.3-1.4-3.1-2.9c0,0-0.2-0.3-0.7-0.4v-0.6c0.3-0.1,0.5-0.4,0.5-0.7s-0.2-0.6-0.5-0.7v-0.8c0.3-0.1,0.5-0.2,0.5-0.3
	c0-0.1-0.2-0.3-0.6-0.3l-0.3-2.3l-0.3,2.3c-0.3,0-0.5,0.2-0.5,0.3c0,0.1,0.2,0.3,0.5,0.3V29c-0.3,0.1-0.5,0.4-0.5,0.7
	s0.2,0.6,0.5,0.7v0.6c-0.5,0.1-0.7,0.4-0.7,0.4c-0.8,1.6-3.2,2.9-3.2,2.9h0.4c-3.6,1.4-6.1,4.7-6.1,8.6
	C88.6,44.1,88.8,45.2,89.2,46.2z"/>
<path class="st0" d="M56.8,32.5v0.6v0.4l-0.4,0.1c-0.1,0-0.1,0.3-0.2,0.5v0.2v0.3c0.1,0.1,0.3,0.2,0.3,0.3c0.2-0.2,0.5-0.4,0.8-0.5
	l0.2-0.1l0.2,0.1c0.3,0.1,0.6,0.3,0.8,0.5c0.2-0.2,0.5-0.4,0.8-0.5l0.2-0.1l0.2,0.1c0.3,0.1,0.6,0.3,0.8,0.5
	c0.2-0.2,0.5-0.4,0.8-0.5l0.2-0.1l0.2,0.1c0.3,0.1,0.6,0.3,0.8,0.5c0.2-0.2,0.5-0.4,0.8-0.5l0.2-0.1l0.2,0.1
	c0.3,0.1,0.6,0.3,0.8,0.5c0.2-0.2,0.5-0.4,0.8-0.5l0.2-0.1l0.2,0.1c0.3,0.1,0.6,0.3,0.8,0.5c0.2-0.2,0.5-0.4,0.8-0.5l0.2-0.1
	l0.2,0.1c0.3,0.1,0.6,0.3,0.8,0.5c0.2-0.2,0.5-0.4,0.8-0.5l0.2-0.1l0.2,0.1c0.3,0.1,0.6,0.3,0.8,0.5c0.2-0.2,0.5-0.4,0.8-0.5
	l0.2-0.1l0.2,0.1c0.3,0.1,0.6,0.3,0.8,0.5c0.2-0.2,0.5-0.4,0.8-0.5l0.2-0.1l0.2,0.1c0.3,0.1,0.6,0.3,0.8,0.5
	c0.2-0.2,0.5-0.4,0.8-0.5l0.2-0.1l0.2,0.1c0.3,0.1,0.6,0.3,0.8,0.5c0.2-0.2,0.5-0.4,0.8-0.5l0.2-0.1l0.2,0.1
	c0.3,0.1,0.6,0.3,0.8,0.5c0.2-0.2,0.5-0.4,0.8-0.5l0.2-0.1l0.2,0.1c0.3,0.1,0.6,0.3,0.8,0.5c0.2-0.2,0.4-0.4,0.6-0.5v-0.2V34
	c0-0.2-0.1-0.5-0.2-0.5L79,33.4V33v-0.6v-0.5h0.5v-0.9H79v-0.5v-0.4v-0.5h0.4v-0.2c-1.3-2.7-3.7-4.8-6.7-5.9h0.5c0,0-3-1.7-4-3.6
	c0,0-0.3-0.4-0.9-0.5v-0.8c0.4-0.1,0.7-0.5,0.7-0.9c0-0.4-0.3-0.8-0.7-0.9v-1c0.4-0.1,0.7-0.2,0.7-0.4c0-0.2-0.3-0.3-0.7-0.4
	l-0.3-2.8l-0.3,2.8c-0.4,0.1-0.7,0.2-0.7,0.4s0.3,0.3,0.7,0.4v1c-0.4,0.1-0.7,0.5-0.7,0.9s0.3,0.8,0.7,0.9v0.8
	c-0.6,0.1-0.9,0.5-0.9,0.5c-1.1,1.9-4,3.6-4,3.6h0.5c-3,1.1-5.3,3.2-6.7,5.9c0,0,0,0,0,0v0.2h0.3v0.5v0.4v0.5h-0.4V32h0.4L56.8,32.5
	L56.8,32.5L56.8,32.5z"/>
<path class="st0" d="M198.1,64.4l-1-5.5V31.4l-1.9-13.2l-1.8,13.2v27.5l-1,5.5h-2.1l-0.8-0.7l-0.7-3.5V37.6l-1.5-10.9l-1.5,10.9
	v15.3l-15.4-5.3l-0.6-4.5l-1.1,1.4l-0.2-3.4h-0.1l-0.2,3.4L167,43l-0.6,4.5L150.9,53V37.6l-1.5-10.9l-1.6,10.9v22.6l-0.7,3.6
	l-0.6,0.6h-2.2l-1-5.5V31.4l-1.8-13.2l-1.9,13.2v27.5l-1,5.5H136v3.8h64.7v-3.8H198.1L198.1,64.4z M142.1,59.8H141V32.5h1.1V59.8z
	 M149.9,56.6l-0.6,0.8v-19h0.6V56.6z M151.1,61.3l14.8-12.6l-14.6,13.6L151.1,61.3z M152.8,64.4l0.5-0.4v0.4H152.8z M155.7,64.4V62
	l2.2-1.8v4.1H155.7z M160.4,64.4v-6l2.2-1.8v7.7H160.4z M165,64.4v-9.6l2.2-1.8v11.4L165,64.4L165,64.4z M169.6,64.4V52.9l2.2,1.8
	v9.7H169.6z M174.2,64.4v-7.8l2.2,1.8v6.1L174.2,64.4L174.2,64.4z M178.9,64.4v-4.2l2.2,1.8v2.4H178.9z M183.5,64.4v-0.5l0.6,0.5
	H183.5z M185.5,62.2L171,48.7l14.7,12.5L185.5,62.2z M187.4,57.3l-0.5-1.1V38.4h0.5V57.3z M195.8,59.8h-1.1V32.5h1.1V59.8z"/>
<path class="st0" d="M299.8,64.7l-2.9-44.8h-2.2v1.7h-4v-1.7H290h-2.3h-0.7v1.7h-4v-1.7h-2.2l-0.4,6.2h-3.2v2.6h-1.9v-2.6h-3.9v2.6
	h-1.9v-2.6h-3.9v2.6h-1.9v-2.6h-3.9v2.6H258v-2.6h-1.7v-5.7v-2.8V17h-0.5v0.6h-3v0.7h-1.8V21h2.8v-0.7h2.1v5.7h-1.7v2.6h-1.9v-2.6
	h-3.9v2.6h-1.9v-2.6h-3.9v2.6h-1.9v-2.6h-3.9v2.6h-1.9v-2.6h-3.2l-0.4-6.2h-2.2v1.7h-4v-1.7h-0.6H222h-0.7v1.7h-4v-1.7h-2.2
	l-2.9,44.8h-1.7v3.4h1.5h9.9h2.3h9.9h1.5v-3.4h-1.7l-1.5-23.6c4.7-1.1,13.8-2.9,23.3-2.9c0.1,0,0.2,0,0.3,0c0.1,0,0.2,0,0.3,0
	c9.5,0,18.6,1.8,23.3,2.9l-1.5,23.6h-1.7v3.4h1.5h9.9h2.3h9.9h1.5v-3.4H299.8z M226.4,64.7h-6.6V52.3h6.6V64.7z M292.2,64.7h-6.6
	V52.3h6.6V64.7z"/>
<path class="st0" d="M321.6,36.6v3.5h4.9h14.6h4.9v-3.5h6.6c0-0.5,0.1-1.1,0.1-1.6c0-10.3-8.2-18.6-18.4-18.9v-2.8h-1v2.8
	C323.1,16.4,315,24.7,315,35c0,0.6,0,1.1,0.1,1.6H321.6z M331.3,36.5l-0.3,0.3h0.5v1.7h-2.2v-1.7h0.5l-0.3-0.3
	c-0.2-0.2-0.4-0.6-0.4-0.9c0-0.7,0.6-1.3,1.3-1.3s1.3,0.6,1.3,1.3C331.7,35.9,331.6,36.3,331.3,36.5z M334.8,36.5l-0.3,0.3h0.5v1.7
	h-2.2v-1.7h0.5l-0.3-0.3c-0.2-0.2-0.4-0.6-0.4-0.9c0-0.7,0.6-1.3,1.3-1.3s1.3,0.6,1.3,1.3C335.2,35.9,335,36.3,334.8,36.5z
	 M338.2,36.5l-0.3,0.3h0.5v1.7h-2.2v-1.7h0.5l-0.3-0.3c-0.2-0.2-0.4-0.6-0.4-0.9c0-0.7,0.6-1.3,1.3-1.3s1.3,0.6,1.3,1.3
	C338.6,35.9,338.5,36.3,338.2,36.5z"/>
<path class="st0" d="M357.1,68.2l-2.2-30.4h-1.6h-0.7h-5.4v2.4v1.1H346h-4.9h-14.6h-4.9h-1.1v-1.1v-2.4h-5.4h-0.7h-1.6l-2.2,30.4h16
	h1.2c-0.1,0.6-0.1,1-0.1,1.1v0l0,0.4h12.6l0-0.4v0c0-0.1,0-0.5-0.1-1.1h1.2H357.1z M339.3,68.9h-11c0-0.2,0.1-0.4,0.1-0.7
	c0.3-2.6,1.2-9.2,2.8-13.7c0.1-0.2,0.2-0.5,0.3-0.7c0.5-1.3,1-2.3,1.7-3c0.3-0.4,1-0.4,1.4,0c0.6,0.7,1.2,1.8,1.7,3
	c0.1,0.2,0.2,0.5,0.3,0.7c1.6,4.5,2.5,11.1,2.8,13.7C339.3,68.5,339.3,68.7,339.3,68.9z"/>
<path class="st0" d="M403.8,26.6l0.1-0.1v-0.8c0,0-31.9,3.6-36.6,26.3c0,0-1.9,9.4-2.2,16.2l7.3,0v0c0-0.6,0.5-14.4,5.2-22.9
	C382.7,36.4,392,29.7,403.8,26.6z"/>
<path class="st0" d="M403.1,28c-11.3,3.2-20.1,9.6-25,18.1c-4.4,7.7-5,20.6-5.1,22l0,0.1l12,0l0-0.1c0-0.1,0.5-4.3,1.6-9.2
	C388.2,51.1,392.2,39.2,403.1,28z"/>
<path class="st0" d="M405.1,31c-2.5,3.2-11.2,14.8-12.3,23.5c-0.8,6.3-0.9,11.1-0.9,13.8l11.2,0l1.4-7.2
	C404.4,53.2,404.4,40.6,405.1,31z"/>
<path class="st0" d="M392.1,54.2c1.3-10,11.6-23,13.1-24.8c0-0.4,0.1-0.8,0.1-1.2c0,0-12.5,14-14.6,25.2c-2,11.2-1.4,15-1.4,15
	l1.8,0C391.2,65.4,391.3,60.6,392.1,54.2z"/>
<path class="st0" d="M386.1,64.1c-0.3,1.8-0.5,3.2-0.6,3.8h0.5l2.7,0c-0.2-9.1,2-17.8,2.9-21C388.6,51.5,386.9,59.3,386.1,64.1z"/>
<path class="st0" d="M446.2,52.2c-4.8-22.8-36.8-26.5-36.8-26.5v0.8l0.1,0.1c11.9,3.2,21.2,9.9,26.3,18.9c4.8,8.5,5.4,22.3,5.4,22.9
	v0l7.3,0C448.3,61.6,446.2,52.2,446.2,52.2z"/>
<path class="st0" d="M410.3,28c11,11.3,15.1,23.2,16.6,31.1c1.2,5,1.7,9.1,1.7,9.2l0,0.1l12,0l0-0.1c-0.1-1.4-0.8-14.3-5.2-22
	C430.5,37.7,421.6,31.2,410.3,28z"/>
<path class="st0" d="M408.3,31c0.7,9.4,0.9,21.7,0.8,29.6l1.6,7.7l11.1,0c0-2.8-0.2-7.5-1-13.8C419.6,45.9,410.8,34.2,408.3,31z"/>
<path class="st0" d="M408,28.1c0,0.4,0.1,0.8,0.1,1.2c1.5,1.9,11.9,14.9,13.3,24.9c0.9,6.4,1,11.3,1,14.1h1.8c0,0,0.6-3.8-1.5-15
	C420.7,42.2,408,28.1,408,28.1z"/>
<path class="st0" d="M422,47c0.9,3.2,3.1,12,3,21.1l2.7,0h0.5c-0.1-0.6-0.3-2-0.6-3.8C426.7,59.4,424.9,51.6,422,47z"/>
<path class="st0" d="M406.8,52.9l-2.3,11.7l-0.6,3.1h0.7h4.5h0.8l-0.8-3.7L406.8,52.9z"/>
<path class="st0" d="M478.2,62.4c-0.6-4.3,4.4-5.3,4.4-5.3c-1.1-1.5-4.1-0.3-4.1-0.3c-0.6-0.5-1.3-0.8-2.1-0.9
	c-0.7-1.6-1.2-4.2-1.5-6.6v-0.2h0c-0.4-2.7-0.5-5-0.5-5s-1.2-19.1-1.3-21c-0.1-1.3,0.5-2.4,1-2.9h0v-1.9h-1.2
	c-0.1-1.9-0.2-3.3-0.2-3.7c-0.1-1.1,0.5-2,0.8-2.4h0v-1.6h-1.2v-6c0-0.9-0.7-1.7-1.6-1.8h0.1V0.4h-0.3v2.4h0.1
	c-0.9,0-1.6,0.8-1.6,1.8v6h-1.2v1.6h0c0.3,0.5,0.9,1.4,0.8,2.4c0,0.4-0.1,1.8-0.2,3.7H467v1.9h0.1c0.4,0.6,1,1.6,1,2.9
	c-0.1,1.9-1.3,21-1.3,21s-0.2,2.3-0.5,5h0v0.2c-0.3,2.4-0.8,5-1.5,6.6c-0.8,0.2-1.5,0.4-2.1,0.9c0,0-3-1.2-4.1,0.3
	c0,0,4.9,1,4.4,5.3s-6.2,6-6.2,6h3.1c0,0,2.8-2.7,3.5-4.4c0.1-0.3,0.4-0.6,0.7-0.8c0.3-0.1,0.5-0.2,0.6,0.1c0,0.1,0,0.2,0,0.3
	c-0.3,0.7-1.7,3.8-4,4.7h4.6c0,0,1.4-3.1,1.6-5.3c0,0,0.4-0.6,1.3-0.6c0,0,1.4-0.1,1.5,0.5c0.2,0.6,0.3,3.9-1,5.3h1.7h0.1h1.7
	c-1.3-1.4-1.1-4.7-1-5.3c0.2-0.6,1.5-0.5,1.5-0.5c0.9,0,1.3,0.6,1.3,0.6c0.2,2.2,1.6,5.3,1.6,5.3h4.6c-2.2-0.9-3.7-4-4-4.7
	c0-0.1-0.1-0.2,0-0.3c0.1-0.3,0.3-0.2,0.6-0.1c0.3,0.2,0.6,0.5,0.7,0.8c0.7,1.7,3.5,4.4,3.5,4.4h3.1
	C484.4,68.4,478.8,66.7,478.2,62.4z M469.4,50.5h0.6v2.3h-0.7L469.4,50.5z M471.1,44.3v-6.3h0.5l0.1,6.3H471.1z M471.6,45.7l0,3.4
	h-0.6v-3.4H471.6z M471.1,29.1h0.4l0.1,8.1h-0.5L471.1,29.1L471.1,29.1z M470.1,37.2h-0.5l0.1-8.1h0.4L470.1,37.2L470.1,37.2z
	 M472.3,38h0.3l0.2,6.3h-0.2C472.5,42.4,472.4,40.2,472.3,38z M472.3,37.2c-0.1-2.8-0.2-5.6-0.3-8.1h0.3l0.3,8.1H472.3z M471.9,28.4
	c-0.1-3.5-0.2-6.2-0.2-6.5c0-0.3,0.1-0.6,0.2-1l0.3,7.5L471.9,28.4L471.9,28.4z M471.4,28.4h-0.4v-8.3h0.3L471.4,28.4z M471,18.3
	v-6.2h0.2l0.1,6.2H471z M470.1,18.3h-0.3l0.1-6.2h0.2L470.1,18.3L470.1,18.3z M470.1,20.2v8.3h-0.4l0.1-8.3H470.1z M469.4,21.9
	c0,0.4,0,3-0.2,6.5h-0.3l0.3-7.5C469.2,21.2,469.3,21.6,469.4,21.9z M469.2,29.1c-0.1,2.5-0.2,5.3-0.3,8.1h-0.3l0.3-8.1H469.2z
	 M468.8,38c-0.1,2.2-0.2,4.4-0.3,6.3h-0.2l0.2-6.3H468.8z M469.6,38h0.5v6.3h-0.6L469.6,38z M470.1,45.7v3.4h-0.6l0-3.4H470.1z
	 M471.1,50.5h0.6l0,2.3h-0.7V50.5z M473,49.1c-0.1-0.8-0.2-2-0.3-3.4h0.2L473,49.1L473,49.1z M471.7,18.3c-0.1-2.6-0.1-4.4-0.1-4.7
	c0-0.2,0.1-0.5,0.1-0.8l0.2,5.5L471.7,18.3z M471.1,6.9h-1V5.3h1V6.9z M470.1,7.5h1v3h-1V7.5z M469.4,12.8c0.1,0.3,0.1,0.5,0.1,0.8
	c0,0.3,0,2.1-0.1,4.7h-0.2L469.4,12.8z M468.2,45.7h0.2c-0.1,1.4-0.2,2.6-0.3,3.4h0L468.2,45.7z M469.4,56l0-1.4h0.7v1.6
	C469.9,56.2,469.6,56.1,469.4,56z M471.1,56.2v-1.6h0.7l0,1.4C471.5,56.1,471.3,56.2,471.1,56.2z"/>
</svg>
